<svg width="198" height="38" viewBox="0 0 198 38" fill="none" xmlns="http://www.w3.org/2000/svg">
<path d="M54.433 25.8783C54.3701 25.7315 54.3071 25.5846 54.2652 25.4378C54.2232 25.27 54.1813 25.1022 54.1393 24.9134C53.9925 25.0812 53.8037 25.2281 53.6359 25.3749C53.4471 25.5217 53.2374 25.6476 53.0067 25.7524C52.7549 25.8573 52.5032 25.9412 52.2306 26.0042C51.9369 26.0671 51.6223 26.0881 51.3076 26.0881C50.8042 26.0881 50.3218 26.0251 49.8394 25.8573C49.4198 25.7105 49.0213 25.5007 48.6857 25.2071C48.3711 24.9344 48.1194 24.5988 47.9306 24.2212C47.7418 23.8227 47.6579 23.4032 47.6579 22.9837C47.6579 21.893 48.0564 21.033 48.8745 20.4456C49.6925 19.8374 50.9091 19.5437 52.5242 19.5437H54.0135V18.9354C54.0345 18.4949 53.8457 18.0544 53.531 17.7398C53.1954 17.4461 52.734 17.2993 52.1257 17.2993C51.5803 17.2993 51.1818 17.4042 50.9301 17.6559C50.6784 17.9076 50.5315 18.2432 50.5525 18.5998H47.8886C47.8886 18.1593 47.9935 17.7398 48.1823 17.3413C48.392 16.9427 48.6857 16.5652 49.0423 16.2925C49.4618 15.9779 49.9233 15.7262 50.4267 15.5793C51.035 15.3905 51.6642 15.3066 52.2935 15.3066C52.8808 15.3066 53.4681 15.3696 54.0554 15.5374C54.5588 15.6842 55.0413 15.9149 55.4608 16.2296C55.8593 16.5232 56.174 16.9218 56.3837 17.3622C56.6144 17.8657 56.7403 18.411 56.7193 18.9564V23.4242C56.7193 23.8856 56.7403 24.3471 56.8242 24.8085C56.8871 25.1442 56.992 25.4588 57.1388 25.7524V25.8783H54.433ZM51.895 24.0115C52.1467 24.0115 52.3984 23.9905 52.6501 23.9276C52.8598 23.8647 53.0906 23.7807 53.2793 23.6759C53.4471 23.592 53.6149 23.4661 53.7618 23.3193C53.8876 23.1934 53.9925 23.0676 54.0764 22.9208V21.1378H52.713C52.3564 21.1378 51.9998 21.1798 51.6432 21.2637C51.3915 21.3266 51.1398 21.4315 50.9301 21.5993C50.7413 21.7251 50.5945 21.9139 50.5106 22.1237C50.4267 22.3334 50.3637 22.5642 50.3847 22.7739C50.3847 23.1095 50.5106 23.4451 50.7623 23.6759C50.993 23.8856 51.3706 24.0115 51.895 24.0115Z" fill="#222326"/>
<path d="M68.6963 15.2854C69.0739 15.2854 69.4514 15.3064 69.808 15.3693C70.1017 15.4113 70.3744 15.4742 70.647 15.5371L70.2485 18.222C69.8919 18.1381 69.5353 18.0751 69.1787 18.0332C68.8222 17.9912 68.4866 17.9703 68.13 17.9703C67.5007 17.9283 66.8714 18.0751 66.3261 18.3898C65.8646 18.6834 65.508 19.1239 65.3193 19.6273V25.878H62.6554V15.4952H65.1515L65.2773 17.1942C65.6758 16.6278 66.2002 16.1454 66.7875 15.8098C67.3539 15.4532 68.0041 15.2854 68.6963 15.2854Z" fill="#222326"/>
<path d="M81.1558 22.6268L82.0577 15.4951H84.5118L82.645 25.899H80.3167L78.9533 19.2707L77.6319 25.878H75.2826L73.4158 15.4951H75.849L76.7509 22.6687L78.0514 15.4951H79.8343L81.1558 22.6268Z" fill="#222326"/>
<path d="M92.8391 26.0667C92.084 26.0667 91.3499 25.9408 90.6577 25.6681C90.0284 25.4164 89.4621 25.0598 88.9796 24.5984C88.5182 24.1369 88.1406 23.6125 87.9099 23.0042C87.6582 22.375 87.5323 21.7037 87.5323 21.0325V20.655C87.5323 19.9208 87.6582 19.1657 87.9099 18.4735C88.1406 17.8443 88.4972 17.2569 88.9587 16.7745C89.3991 16.2921 89.9445 15.9145 90.5528 15.6628C91.8323 15.1384 93.2796 15.1384 94.5591 15.6418C95.1255 15.8726 95.6289 16.2291 96.0484 16.6906C96.4679 17.1521 96.7825 17.7184 96.9713 18.3057C97.1811 18.9769 97.3069 19.6901 97.2859 20.4033V21.5359H90.2172C90.2591 21.8716 90.364 22.2072 90.5318 22.5008C90.8465 23.0881 91.3499 23.5286 91.9791 23.7384C92.3147 23.8642 92.6503 23.9062 93.0069 23.9062C93.2796 23.9062 93.5313 23.8852 93.783 23.8223C94.0347 23.7803 94.2864 23.6964 94.5172 23.5915C94.7479 23.4867 94.9786 23.3608 95.1884 23.214C95.3981 23.0672 95.5659 22.8994 95.7337 22.6896L97.0762 24.1369C96.8874 24.3886 96.6776 24.6193 96.4259 24.8291C96.1323 25.0808 95.8176 25.2696 95.482 25.4374C95.1045 25.6262 94.685 25.752 94.2655 25.8569C93.804 26.0037 93.3216 26.0667 92.8391 26.0667ZM92.5245 17.4457C92.2308 17.4457 91.9582 17.4877 91.7064 17.6135C91.4547 17.7184 91.224 17.8652 91.0562 18.075C90.8674 18.2847 90.6996 18.5155 90.5738 18.7882C90.4479 19.0818 90.343 19.3964 90.2801 19.7111H94.664V19.5013C94.643 19.2286 94.6011 18.956 94.4962 18.7042C94.4123 18.4525 94.2655 18.2428 94.0767 18.054C93.8879 17.8652 93.6572 17.7184 93.4264 17.6135C93.1328 17.5086 92.8391 17.4457 92.5245 17.4457Z" fill="#222326"/>
<path d="M107.585 25.8781C107.522 25.7312 107.459 25.5844 107.417 25.4376C107.375 25.2698 107.333 25.081 107.312 24.9132C107.144 25.081 106.977 25.2278 106.788 25.3746C106.599 25.5215 106.389 25.6473 106.159 25.7522C105.907 25.8571 105.655 25.941 105.383 26.0039C105.089 26.0668 104.774 26.0878 104.46 26.0878C103.956 26.0878 103.474 26.0249 102.991 25.8571C102.572 25.7103 102.173 25.5005 101.838 25.2068C101.187 24.6615 100.81 23.8434 100.81 22.9834C100.81 21.8927 101.208 21.0327 102.026 20.4454C102.844 19.8371 104.061 19.5435 105.676 19.5435H107.165V18.9352C107.186 18.4947 106.998 18.0542 106.683 17.7396C106.347 17.4459 105.886 17.2991 105.278 17.2991C104.732 17.2991 104.334 17.4039 104.082 17.6557C103.83 17.9074 103.683 18.243 103.704 18.5996H101.041C101.041 18.1591 101.145 17.7396 101.334 17.341C101.544 16.9425 101.838 16.5649 102.194 16.2922C102.614 15.9776 103.075 15.7259 103.579 15.5791C104.187 15.3903 104.816 15.3064 105.445 15.3064C106.033 15.3064 106.62 15.3693 107.207 15.5371C107.711 15.684 108.193 15.9147 108.613 16.2293C109.011 16.523 109.326 16.9215 109.536 17.362C109.766 17.8654 109.892 18.4108 109.871 18.9561V23.4239C109.871 23.8854 109.892 24.3468 109.976 24.8083C110.039 25.1439 110.144 25.4585 110.291 25.7522V25.8781H107.585ZM105.047 24.0112C105.299 24.0112 105.55 23.9903 105.802 23.9273C106.012 23.8644 106.222 23.7805 106.431 23.6756C106.599 23.5917 106.767 23.4659 106.914 23.319C107.04 23.1932 107.144 23.0673 107.228 22.9205V21.1376H105.865C105.508 21.1376 105.152 21.1795 104.795 21.2634C104.543 21.3264 104.292 21.4312 104.082 21.5991C103.893 21.7249 103.746 21.9137 103.663 22.1234C103.579 22.3332 103.516 22.5639 103.537 22.7737C103.537 23.1093 103.663 23.4449 103.914 23.6756C104.145 23.8854 104.523 24.0112 105.047 24.0112Z" fill="#222326"/>
<path d="M118.807 22.7946L118.933 23.5497L119.059 22.8365L121.345 15.4951H124.135L120.191 25.878H117.674L113.71 15.4951H116.5L118.807 22.7946Z" fill="#222326"/>
<path d="M132.714 26.0667C131.958 26.0667 131.224 25.9408 130.532 25.6681C129.903 25.4164 129.337 25.0598 128.854 24.5984C128.393 24.1369 128.015 23.6125 127.763 23.0042C127.512 22.375 127.386 21.7037 127.386 21.0325V20.655C127.386 19.9208 127.512 19.1657 127.763 18.4735C127.994 17.8443 128.351 17.2569 128.812 16.7745C129.253 16.2921 129.798 15.9145 130.406 15.6628C131.686 15.1384 133.133 15.1384 134.413 15.6418C134.979 15.8726 135.482 16.2291 135.902 16.6906C136.321 17.1521 136.636 17.7184 136.825 18.3057C137.035 18.9769 137.139 19.6901 137.139 20.4033V21.5359H130.092C130.134 21.8716 130.238 22.2072 130.406 22.5008C130.721 23.0881 131.224 23.5286 131.833 23.7384C132.168 23.8642 132.504 23.9062 132.86 23.9062C133.133 23.9062 133.385 23.8852 133.637 23.8223C133.888 23.7803 134.14 23.6964 134.371 23.5915C134.601 23.4867 134.832 23.3608 135.042 23.214C135.252 23.0672 135.419 22.8994 135.587 22.6896L136.93 24.1369C136.741 24.3886 136.531 24.6193 136.279 24.8291C135.986 25.0808 135.671 25.2696 135.336 25.4374C134.958 25.6262 134.538 25.752 134.119 25.8569C133.678 26.0037 133.196 26.0667 132.714 26.0667ZM132.399 17.4457C132.105 17.4457 131.833 17.4877 131.581 17.6135C131.329 17.7184 131.098 17.8652 130.931 18.075C130.742 18.2847 130.574 18.5155 130.448 18.7882C130.322 19.0818 130.218 19.3964 130.155 19.7111H134.538V19.5013C134.518 19.2286 134.476 18.956 134.371 18.7042C134.287 18.4525 134.14 18.2428 133.951 18.054C133.762 17.8652 133.532 17.7184 133.301 17.6135C133.007 17.5086 132.693 17.4457 132.399 17.4457Z" fill="#222326"/>
<path d="M143.663 24.3258C143.663 24.095 143.705 23.8433 143.789 23.6336C143.873 23.4238 143.998 23.235 144.145 23.0672C144.313 22.8994 144.502 22.7736 144.733 22.6897C145.236 22.5009 145.781 22.5009 146.285 22.6897C146.495 22.7736 146.704 22.8994 146.872 23.0672C147.04 23.235 147.145 23.4238 147.229 23.6336C147.313 23.8643 147.354 24.095 147.354 24.3258C147.354 24.5565 147.313 24.7872 147.229 24.997C147.145 25.2067 147.019 25.3955 146.872 25.5424C146.704 25.7102 146.515 25.836 146.285 25.9199C145.781 26.1087 145.236 26.1087 144.733 25.9199C144.523 25.836 144.313 25.7102 144.145 25.5424C143.977 25.3955 143.852 25.2067 143.789 24.997C143.705 24.7872 143.663 24.5565 143.663 24.3258Z" fill="#222326"/>
<path d="M153.878 20.5922C153.878 19.879 153.983 19.1659 154.214 18.4947C154.423 17.8864 154.738 17.2991 155.178 16.8166C155.598 16.3342 156.122 15.9566 156.71 15.7049C158.052 15.1596 159.541 15.1596 160.884 15.7049C161.471 15.9566 161.995 16.3342 162.436 16.8166C162.855 17.2991 163.191 17.8864 163.401 18.4947C163.632 19.1659 163.736 19.879 163.736 20.5922V20.802C163.736 21.5151 163.632 22.2283 163.401 22.9205C163.191 23.5288 162.876 24.1161 162.457 24.5985C162.037 25.081 161.513 25.4585 160.926 25.7102C160.275 25.9829 159.562 26.1298 158.849 26.1088C158.136 26.1298 157.423 25.9829 156.752 25.7102C156.164 25.4585 155.64 25.081 155.199 24.5985C154.78 24.1161 154.444 23.5288 154.234 22.9205C154.004 22.2493 153.899 21.5361 153.899 20.802L153.878 20.5922ZM156.542 20.802C156.542 21.2215 156.584 21.62 156.668 22.0186C156.731 22.3751 156.877 22.7107 157.066 23.0254C157.423 23.6337 158.094 23.9903 158.786 23.9483C159.143 23.9693 159.478 23.8644 159.793 23.6966C160.066 23.5288 160.317 23.2981 160.485 23.0044C160.674 22.6898 160.8 22.3542 160.884 21.9976C160.968 21.599 161.01 21.1795 161.01 20.781V20.5712C161.01 20.1727 160.968 19.7742 160.884 19.3756C160.8 19.0191 160.674 18.6834 160.485 18.3898C160.317 18.1171 160.087 17.8654 159.793 17.7186C158.849 17.1732 157.633 17.4669 157.066 18.3898C156.877 18.7044 156.752 19.04 156.668 19.3966C156.584 19.7951 156.542 20.1937 156.542 20.5922V20.802Z" fill="#222326"/>
<path d="M175 15.2854C175.378 15.2854 175.755 15.3064 176.112 15.3693C176.406 15.4113 176.678 15.4742 176.951 15.5371L176.552 18.222C176.196 18.1381 175.839 18.0751 175.462 18.0332C175.105 17.9912 174.769 17.9703 174.413 17.9703C173.784 17.9493 173.154 18.0961 172.609 18.4108C172.148 18.7044 171.791 19.1449 171.581 19.6483V25.878H168.917V15.4952H171.413L171.539 17.1942C171.938 16.6278 172.462 16.1454 173.07 15.7888C173.658 15.4532 174.329 15.2854 175 15.2854Z" fill="#222326"/>
<path d="M180.559 20.6131C180.559 19.879 180.643 19.1448 180.852 18.4526C181.02 17.8443 181.314 17.278 181.691 16.7746C182.048 16.3131 182.488 15.9356 183.013 15.6839C183.558 15.4112 184.167 15.2853 184.775 15.2853C185.32 15.2644 185.845 15.3692 186.348 15.6C186.788 15.8097 187.166 16.1034 187.46 16.4809L187.565 15.4951H189.998V25.5633C190.019 26.2136 189.893 26.8638 189.641 27.4511C189.41 27.9755 189.075 28.458 188.634 28.8355C188.173 29.2341 187.648 29.5277 187.082 29.6955C186.432 29.9053 185.761 29.9892 185.068 29.9892C184.733 29.9892 184.397 29.9472 184.062 29.8843C183.705 29.8214 183.348 29.7165 182.992 29.5906C182.635 29.4648 182.3 29.276 181.985 29.0872C181.67 28.8775 181.398 28.6258 181.188 28.3321L182.384 26.696C182.698 27.0736 183.097 27.3672 183.537 27.577C183.978 27.7867 184.439 27.8916 184.922 27.8706C185.677 27.8706 186.264 27.6609 186.684 27.2624C187.103 26.8638 187.313 26.2975 187.313 25.5633V24.976C186.998 25.3116 186.621 25.5843 186.222 25.7731C185.761 25.9828 185.257 26.0668 184.775 26.0668C184.167 26.0668 183.579 25.9409 183.034 25.6682C182.509 25.3955 182.069 25.018 181.712 24.5775C181.335 24.0741 181.041 23.5077 180.873 22.8994C180.664 22.2282 180.58 21.5151 180.58 20.8019V20.6131H180.559ZM183.223 20.8229C183.223 21.2214 183.265 21.6409 183.348 22.0395C183.432 22.396 183.558 22.7107 183.747 23.0253C183.915 23.298 184.146 23.5287 184.418 23.6755C184.712 23.8433 185.048 23.9272 185.404 23.9272C185.803 23.9482 186.201 23.8433 186.558 23.6546C186.872 23.4658 187.103 23.2141 187.292 22.8994V18.4946C187.124 18.18 186.872 17.9283 186.558 17.7395C186.201 17.5507 185.824 17.4668 185.425 17.4668C185.089 17.4668 184.733 17.5507 184.439 17.7185C184.167 17.8863 183.915 18.117 183.747 18.3897C183.558 18.7043 183.411 19.04 183.328 19.3965C183.244 19.7951 183.181 20.2146 183.202 20.6131L183.223 20.8229Z" fill="#222326"/>
<path d="M25.1092 25.8781C25.0463 25.7312 24.9834 25.5844 24.9414 25.4376C24.8995 25.2698 24.8575 25.081 24.8156 24.9132C24.6687 25.081 24.48 25.2278 24.3121 25.3746C24.1234 25.5215 23.9136 25.6473 23.6829 25.7522C23.4312 25.8571 23.1585 25.941 22.9068 26.0039C22.6131 26.0668 22.2985 26.0878 22.0048 26.0878C21.5014 26.0878 21.019 26.0249 20.5366 25.8571C20.117 25.7103 19.7185 25.5005 19.3829 25.2068C18.7327 24.6615 18.3551 23.8434 18.3551 22.9834C18.3551 21.8927 18.7536 21.0327 19.5717 20.4454C20.3897 19.8371 21.6063 19.5435 23.2214 19.5435H24.7317V18.9352C24.7526 18.4947 24.5639 18.0542 24.2492 17.7396C23.9136 17.4459 23.4522 17.2991 22.8439 17.2991C22.2985 17.2991 21.9 17.4039 21.6483 17.6557C21.3966 17.9074 21.2497 18.243 21.2707 18.5996H18.6068C18.6068 18.1591 18.7117 17.7396 18.9005 17.341C19.1102 16.9425 19.4039 16.5649 19.7605 16.2922C20.18 15.9776 20.6414 15.7259 21.1239 15.5791C21.7322 15.3903 22.3614 15.3064 22.9907 15.3064C23.578 15.3064 24.1653 15.3693 24.7526 15.5371C25.256 15.684 25.7385 15.9147 26.158 16.2293C26.5565 16.523 26.8921 16.9215 27.1019 17.383C27.3326 17.8864 27.4585 18.4317 27.4375 18.9771V23.4449C27.4375 23.9064 27.4585 24.3678 27.5424 24.8293C27.6053 25.1649 27.7102 25.4795 27.857 25.7732V25.8781H25.1092ZM22.5712 24.0112C22.8229 24.0112 23.0746 23.9903 23.3053 23.9273C23.5151 23.8644 23.7248 23.7805 23.9346 23.6756C24.1024 23.5917 24.2702 23.4659 24.417 23.319C24.5429 23.1932 24.6478 23.0673 24.7317 22.9205V21.1376H23.3683C23.0117 21.1376 22.6551 21.1795 22.2985 21.2634C22.0468 21.3264 21.7951 21.4312 21.5853 21.5991C21.3966 21.7249 21.2497 21.9137 21.1658 22.1234C21.0819 22.3332 21.019 22.5639 21.04 22.7737C21.04 23.1093 21.1658 23.4449 21.4175 23.6756C21.6692 23.8854 22.0468 24.0112 22.5712 24.0112Z" fill="#222326"/>
<path d="M22.9487 34.8974C15.2507 34.8974 9 28.6467 9 20.9487C9 13.2507 15.2507 7 22.9487 7C30.6467 7 36.8974 13.2507 36.8974 20.9487C36.8974 28.6467 30.6467 34.8974 22.9487 34.8974ZM22.9487 9.01365C16.3624 9.01365 11.0136 14.3624 11.0136 20.9487C11.0136 27.535 16.3624 32.8838 22.9487 32.8838C29.535 32.8838 34.8838 27.535 34.8838 20.9487C34.8838 14.3624 29.535 9.01365 22.9487 9.01365Z" fill="#222326"/>
</svg>
